<svg width="69" height="42" viewBox="0 0 69 42" fill="none" xmlns="http://www.w3.org/2000/svg">
<g id="Group 8" clip-path="url(#clip0_1_163)">
<path id="Vector" d="M44.6348 21.1039L45.9133 24.0542C46.1496 24.598 46.8001 24.8552 47.3677 24.6293C47.9363 24.4057 48.2059 23.783 47.9703 23.2389L46.6921 20.2896L44.6348 21.1039Z" fill="#333333"/>
<path id="Vector_2" d="M45.4878 23.0706L47.5448 22.2561L45.4878 23.0706Z" fill="#333333"/>
<path id="Vector_3" d="M41.9373 14.877L44.8465 16.0287L41.9373 14.877Z" fill="#333333"/>
<path id="Vector_4" d="M43.5203 8.89657C43.5203 10.4644 42.1914 11.735 40.553 11.735C38.9129 11.735 37.5837 10.4644 37.5837 8.89657C37.5837 7.32909 38.9129 6.05908 40.553 6.05908C42.1911 6.05908 43.5203 7.32909 43.5203 8.89657Z" fill="#333333"/>
<path id="Vector_5" d="M42.0358 8.89649C42.0358 9.68086 41.3719 10.3163 40.5527 10.3163C39.7325 10.3163 39.0669 9.68086 39.0669 8.89649C39.0669 8.11278 39.7325 7.4773 40.5527 7.4773C41.3719 7.47694 42.0358 8.11278 42.0358 8.89649Z" fill="#333333"/>
<path id="Vector_6" d="M38.4707 10.9197L34.41 20.29L33.3921 24.495L34.0777 24.7665L36.4677 21.1044L37.0363 19.7938C36.5926 18.7692 37.1009 17.5944 38.1724 17.1708L40.5271 11.7341C39.7262 11.7277 39.0016 11.4184 38.4707 10.9197Z" fill="#333333"/>
<path id="Vector_7" d="M42.633 10.9189C42.1018 11.4183 41.3766 11.7276 40.5757 11.7337L44.0685 19.7921L46.1249 18.9781L42.633 10.9189Z" fill="#333333"/>
<path id="Vector_8" d="M41.6652 4.63959V1.44617C41.6648 0.857652 41.1649 0.381592 40.552 0.381592C39.9371 0.381592 39.4388 0.857008 39.4385 1.44617L39.4388 4.63959H41.6652Z" fill="#333333"/>
<path id="Vector_9" d="M40.5528 6.05887C40.7425 6.05887 40.9285 6.07709 41.1085 6.10969V4.63965H39.9956V6.10969C40.1763 6.07676 40.3612 6.05887 40.5528 6.05887Z" fill="#333333"/>
<path id="Vector_10" d="M25.0956 25.9407H21.3928V0.380859H25.0963C25.9145 0.380859 26.5774 1.01699 26.5774 1.80136V24.5214H26.5771C26.5767 25.3058 25.9138 25.9407 25.0956 25.9407Z" fill="#333333"/>
<path id="Vector_11" d="M24.911 2.51126C25.2179 2.51126 25.4667 2.27281 25.4667 1.97865C25.4667 1.6845 25.2179 1.44604 24.911 1.44604C24.6042 1.44604 24.3555 1.6845 24.3555 1.97865C24.3555 2.27281 24.6042 2.51126 24.911 2.51126Z" fill="#333333"/>
<path id="Vector_12" d="M29.1694 15.4695C29.1694 15.7625 29.4184 16.0018 29.725 16.0018C30.032 16.0018 30.2806 15.7625 30.2806 15.4695C30.2806 15.7625 30.5299 16.0018 30.8362 16.0018C31.1431 16.0018 31.3917 15.7625 31.3917 15.4695C31.3917 15.7625 31.1431 16.0018 30.8362 16.0018C30.5299 16.0018 30.2806 15.7625 30.2806 15.4695C30.2806 15.7625 30.032 16.0018 29.725 16.0018C29.4184 16.0018 29.1694 15.7625 29.1694 15.4695Z" fill="#333333"/>
<path id="Vector_13" d="M29.9103 0.380859C29.5017 0.380859 29.1694 0.699402 29.1694 1.09175V1.09143V16.0016L30.2802 20.2615L31.3914 16.0016V1.09111V1.09143C31.3914 0.699722 31.0595 0.381179 30.6505 0.381179L29.9103 0.380859Z" fill="#333333"/>
</g>
<defs>
<clipPath id="clip0_1_163">
<rect width="68.5517" height="41.5272" fill="white" transform="translate(0.448242 0.142822)"/>
</clipPath>
</defs>
</svg>
